<svg xmlns="http://www.w3.org/2000/svg" width="36.562" height="34.001" viewBox="0 0 36.562 34.001">
  <path id="non_security" d="M-11432.041-2863c-.006,0-.032-.011-.081-.026a25.259,25.259,0,0,1-8.773-4.635,21.081,21.081,0,0,1-5.415-6.622,22.788,22.788,0,0,1-2.417-10.576v-2.038l2.615,1.871v.167c0,13.993,11.01,18.41,14.384,19.43a22.206,22.206,0,0,0,7.461-3.977l2.023,1.448a25.3,25.3,0,0,1-6.2,3.843,17.67,17.67,0,0,1-2.975,1.04l-.313.075Zm-19.247-27.288.939-1.466,32.5,23.054-.939,1.466Zm32.041,19.221-2.009-1.434a19.758,19.758,0,0,0,3.911-12.358v-5.2l-14.384-4.458-14.168,4.388-2.494-1.782,16.662-5.1,17,5.2v6.874a21.816,21.816,0,0,1-4.521,13.864v0Z" transform="translate(11451.288 2897)" fill="#eee"/>
</svg>
